<?xml version="1.0" encoding="UTF-8" standalone="no"?>
<svg
   xmlns:dc="http://purl.org/dc/elements/1.1/"
   xmlns:cc="http://creativecommons.org/ns#"
   xmlns:rdf="http://www.w3.org/1999/02/22-rdf-syntax-ns#"
   xmlns:svg="http://www.w3.org/2000/svg"
   xmlns="http://www.w3.org/2000/svg"
   xmlns:sodipodi="http://sodipodi.sourceforge.net/DTD/sodipodi-0.dtd"
   xmlns:inkscape="http://www.inkscape.org/namespaces/inkscape"
   version="1.1"
   id="Capa_1"
   x="0px"
   y="0px"
   width="699.428px"
   height="699.428px"
   viewBox="0 0 699.428 699.428"
   style="enable-background:new 0 0 699.428 699.428;"
   xml:space="preserve"
   sodipodi:docname="copy.svg"
   inkscape:version="1.0.2-2 (e86c870879, 2021-01-15)"><metadata
   id="metadata44"><rdf:RDF><cc:Work
       rdf:about=""><dc:format>image/svg+xml</dc:format><dc:type
         rdf:resource="http://purl.org/dc/dcmitype/StillImage" /></cc:Work></rdf:RDF></metadata><defs
   id="defs42">
		
	</defs><sodipodi:namedview
   pagecolor="#ffffff"
   bordercolor="#666666"
   borderopacity="1"
   objecttolerance="10"
   gridtolerance="10"
   guidetolerance="10"
   inkscape:pageopacity="0"
   inkscape:pageshadow="2"
   inkscape:window-width="1920"
   inkscape:window-height="1053"
   id="namedview40"
   showgrid="false"
   inkscape:zoom="0.96078513"
   inkscape:cx="349.71399"
   inkscape:cy="349.71399"
   inkscape:window-x="-9"
   inkscape:window-y="-9"
   inkscape:window-maximized="1"
   inkscape:current-layer="g7" />
<g
   id="g7">
	<g
   id="g4">
			<path
   style="color:#000000;font-style:normal;font-variant:normal;font-weight:normal;font-stretch:normal;font-size:medium;line-height:normal;font-family:sans-serif;font-variant-ligatures:normal;font-variant-position:normal;font-variant-caps:normal;font-variant-numeric:normal;font-variant-alternates:normal;font-variant-east-asian:normal;font-feature-settings:normal;font-variation-settings:normal;text-indent:0;text-align:start;text-decoration:none;text-decoration-line:none;text-decoration-style:solid;text-decoration-color:#000000;letter-spacing:normal;word-spacing:normal;text-transform:none;writing-mode:lr-tb;direction:ltr;text-orientation:mixed;dominant-baseline:auto;baseline-shift:baseline;text-anchor:start;white-space:normal;shape-padding:0;shape-margin:0;inline-size:0;clip-rule:nonzero;display:inline;overflow:visible;visibility:visible;isolation:auto;mix-blend-mode:normal;color-interpolation:sRGB;color-interpolation-filters:linearRGB;solid-color:#000000;solid-opacity:1;vector-effect:none;fill:#ffffff;fill-opacity:1;fill-rule:nonzero;stroke-width:1;stroke-linecap:butt;stroke-linejoin:miter;stroke-miterlimit:4;stroke-dasharray:none;stroke-dashoffset:0;stroke-opacity:1;color-rendering:auto;image-rendering:auto;shape-rendering:auto;text-rendering:auto;enable-background:accumulate;stop-color:#000000;stop-opacity:1;stroke:none;opacity:1"
   d="M 502.714,0 H 240.428 C 194.178,0 153,42.425 153,87.429 l -25.267,0.59 c -46.228,0 -84.019,41.834 -84.019,86.838 V 612 c 0,45.004 41.179,87.428 87.429,87.428 H 459 c 46.249,0 87.428,-42.424 87.428,-87.428 h 21.857 c 46.25,0 87.429,-42.424 87.429,-87.428 V 175.382 Z M 459,655.715 H 131.143 c -22.95,0 -43.714,-21.441 -43.714,-43.715 V 174.857 c 0,-22.272 18.688,-42.993 41.638,-42.993 L 153,131.143 V 524.572 C 153,569.576 194.178,612 240.428,612 h 262.286 c 0,22.273 -20.765,43.715 -43.714,43.715 z M 612,524.572 c 0,22.271 -20.765,43.713 -43.715,43.713 H 240.428 c -22.95,0 -43.714,-21.441 -43.714,-43.713 V 87.429 c 0,-22.272 20.764,-43.714 43.714,-43.714 H 459 c -0.351,50.337 0,87.975 0,87.975 0,45.419 40.872,86.882 87.428,86.882 H 612 Z M 546.428,174.857 c -23.277,0 -43.714,-42.293 -43.714,-64.981 V 44.392 44.348 L 612,174.857 Z M 502.714,306.394 H 306 c -12.065,0 -21.857,9.77 -21.857,21.835 0,12.065 9.792,21.835 21.857,21.835 h 196.714 c 12.065,0 21.857,-9.771 21.857,-21.835 0,-12.065 -9.792,-21.835 -21.857,-21.835 z m 0,109.176 H 306 c -12.065,0 -21.857,9.77 -21.857,21.834 0,12.066 9.792,21.836 21.857,21.836 h 196.714 c 12.065,0 21.857,-9.77 21.857,-21.836 0,-12.064 -9.792,-21.834 -21.857,-21.834 z"
   id="path2" />
		</g>
</g>
<g
   id="g9">
</g>
<g
   id="g11">
</g>
<g
   id="g13">
</g>
<g
   id="g15">
</g>
<g
   id="g17">
</g>
<g
   id="g19">
</g>
<g
   id="g21">
</g>
<g
   id="g23">
</g>
<g
   id="g25">
</g>
<g
   id="g27">
</g>
<g
   id="g29">
</g>
<g
   id="g31">
</g>
<g
   id="g33">
</g>
<g
   id="g35">
</g>
<g
   id="g37">
</g>
</svg>
